<?xml version="1.0" standalone="no"?>
<!DOCTYPE svg PUBLIC "-//W3C//DTD SVG 20010904//EN"
 "http://www.w3.org/TR/2001/REC-SVG-20010904/DTD/svg10.dtd">
<svg version="1.0" xmlns="http://www.w3.org/2000/svg"
 width="1726.000000pt" height="515.000000pt" viewBox="0 0 1726.000000 515.000000"
 preserveAspectRatio="xMidYMid meet">

<g transform="translate(0.000000,515.000000) scale(0.100000,-0.100000)"
fill="#000000" stroke="none">
<path d="M270 4656 c0 -3 52 -94 115 -203 118 -201 168 -266 240 -308 84 -50
121 -58 308 -64 l178 -6 1122 -1930 c617 -1062 1126 -1936 1131 -1943 6 -9 41
43 113 170 155 270 167 296 167 387 0 60 -6 88 -26 131 -13 30 -428 760 -921
1623 l-896 1567 240 0 c131 0 239 3 239 6 0 3 -59 102 -131 220 -144 235 -189
286 -287 326 l-57 23 -767 3 c-423 1 -768 0 -768 -2z"/>
<path d="M2290 4655 c0 -3 52 -97 116 -208 132 -231 173 -279 278 -329 l71
-33 1108 -3 1108 -2 -40 -78 c-57 -108 -91 -146 -169 -184 l-67 -33 -1147 -3
c-632 -1 -1148 -4 -1148 -6 0 -5 1501 -2620 1509 -2628 6 -7 1022 1758 1029
1789 5 21 -550 15 -588 -6 -50 -27 -74 -60 -252 -339 -99 -156 -181 -282 -183
-280 -6 7 -525 910 -525 914 0 2 388 5 861 6 l862 3 403 705 c222 388 404 708
404 713 0 4 -817 7 -1815 7 -998 0 -1815 -2 -1815 -5z"/>
<path d="M7824 3445 c-205 -44 -346 -188 -405 -412 -28 -106 -31 -332 -5 -448
66 -296 274 -455 595 -455 315 0 516 144 593 427 31 112 30 372 0 486 -30 109
-76 192 -147 262 -113 113 -235 156 -444 154 -69 0 -153 -7 -187 -14z m328
-233 c90 -40 154 -134 179 -266 14 -75 11 -253 -6 -325 -44 -185 -153 -269
-339 -259 -145 7 -234 79 -279 222 -18 59 -22 94 -22 211 0 90 5 158 14 190
50 177 159 260 332 251 47 -2 94 -12 121 -24z"/>
<path d="M15800 2813 c-123 -351 -225 -644 -228 -651 -3 -10 27 -12 143 -10
l148 3 46 150 46 150 237 3 237 2 31 -102 c17 -57 39 -127 48 -155 l16 -53
148 0 148 0 -40 113 c-22 61 -125 353 -229 647 l-189 535 -169 3 -170 2 -223
-637z m480 150 c44 -143 80 -266 80 -272 0 -8 -52 -11 -165 -11 -120 0 -165 3
-165 12 0 6 27 100 59 207 33 108 69 230 82 271 12 41 23 71 25 65 2 -5 39
-128 84 -272z"/>
<path d="M6270 3330 l0 -110 175 0 175 0 0 -535 0 -535 135 0 135 0 2 533 3
532 178 3 177 2 0 110 0 110 -490 0 -490 0 0 -110z"/>
<path d="M8800 3330 l0 -110 300 0 c165 0 300 -2 300 -5 0 -2 -139 -204 -310
-448 l-310 -445 0 -86 0 -86 485 0 485 0 0 110 0 110 -320 2 -321 3 311 445
310 445 0 88 0 87 -465 0 -465 0 0 -110z"/>
<path d="M9960 2795 l0 -645 135 0 135 0 0 645 0 645 -135 0 -135 0 0 -645z"/>
<path d="M11040 2795 l0 -645 121 0 122 0 -6 458 c-4 251 -10 482 -13 512 -4
35 -3 51 3 45 5 -5 79 -236 164 -512 l153 -503 128 0 127 0 166 505 c91 278
167 505 169 505 1 0 1 -227 -2 -505 l-5 -505 127 0 126 0 0 645 0 645 -187 -2
-186 -3 -163 -495 c-111 -339 -165 -489 -170 -476 -4 10 -73 233 -155 495
l-147 476 -186 3 -186 2 0 -645z"/>
<path d="M12760 2795 l0 -645 370 0 370 0 0 110 0 110 -235 0 -235 0 0 170 0
170 220 0 220 0 0 110 0 110 -220 0 -220 0 0 145 0 145 235 0 235 0 0 110 0
110 -370 0 -370 0 0 -645z"/>
<path d="M13780 2796 l0 -646 248 0 c204 0 263 4 340 19 228 48 382 180 448
385 35 107 44 312 20 426 -44 207 -172 352 -376 424 l-85 31 -297 3 -298 4 0
-646z m546 409 c109 -32 187 -111 222 -225 26 -87 23 -274 -6 -368 -19 -62
-32 -83 -80 -132 -78 -79 -138 -101 -294 -108 l-118 -5 0 427 0 426 113 0 c71
0 132 -6 163 -15z"/>
<path d="M15130 2795 l0 -645 135 0 135 0 0 645 0 645 -135 0 -135 0 0 -645z"/>
<path d="M7916 1763 c-2 -10 -12 -54 -21 -98 -23 -111 -24 -114 -37 -90 -18
34 -40 45 -88 45 -62 0 -107 -31 -144 -99 -30 -56 -45 -153 -32 -205 22 -90
139 -89 212 1 l23 28 -6 -42 c-3 -26 -2 -43 5 -43 12 0 10 -7 66 260 25 118
48 225 51 238 7 27 -21 32 -29 5z m-82 -196 c39 -47 5 -187 -61 -249 -88 -83
-163 -40 -150 88 15 145 143 243 211 161z"/>
<path d="M9980 1671 l-23 -110 -28 30 c-23 24 -35 29 -75 29 -84 0 -141 -56
-170 -169 -30 -118 2 -201 77 -201 49 0 88 19 124 62 l28 33 -8 -44 c-6 -34
-4 -42 6 -39 9 3 32 89 66 249 29 134 52 250 53 257 0 6 -6 12 -14 12 -9 0
-21 -34 -36 -109z m-77 -91 c35 -28 43 -75 23 -142 -46 -158 -199 -220 -221
-90 -7 45 18 144 47 184 25 36 75 68 104 68 12 0 33 -9 47 -20z"/>
<path d="M12245 1758 c-15 -63 -105 -483 -105 -490 0 -4 6 -8 13 -8 10 0 23
41 41 128 15 70 40 187 55 260 23 104 26 132 15 132 -7 0 -16 -10 -19 -22z"/>
<path d="M14450 1525 c-29 -140 -51 -258 -47 -261 13 -13 26 9 33 53 5 35 17
57 45 87 l38 41 43 -92 c30 -65 48 -93 61 -93 16 0 15 4 -7 48 -13 26 -34 71
-46 100 l-23 53 79 80 c58 58 73 79 59 79 -12 0 -62 -42 -122 -102 -57 -57
-103 -98 -103 -93 0 6 16 83 35 172 40 185 40 183 22 183 -9 0 -30 -78 -67
-255z"/>
<path d="M6960 1719 c0 -24 4 -30 18 -27 10 2 18 14 20 31 3 22 -1 27 -17 27
-17 0 -21 -6 -21 -31z"/>
<path d="M10280 1719 c0 -24 4 -30 18 -27 10 2 18 14 20 31 3 22 -1 27 -17 27
-17 0 -21 -6 -21 -31z"/>
<path d="M11067 1728 c-7 -25 -1 -38 18 -38 16 0 29 35 20 50 -11 17 -32 11
-38 -12z"/>
<path d="M15747 1743 c-4 -3 -7 -17 -7 -30 0 -35 34 -26 38 10 3 26 -14 37
-31 20z"/>
<path d="M11364 1661 c-13 -32 -22 -40 -50 -45 -43 -9 -45 -26 -3 -26 27 0 31
-3 27 -22 -47 -217 -52 -259 -37 -286 12 -22 23 -28 62 -30 38 -3 47 0 47 14
0 12 -6 15 -23 10 -28 -7 -67 18 -67 42 0 9 12 74 26 145 l27 127 49 0 c36 0
48 4 48 15 0 11 -12 15 -45 15 l-45 0 6 40 c8 51 -2 51 -22 1z"/>
<path d="M15394 1660 c-10 -25 -23 -40 -33 -40 -10 0 -26 -7 -37 -15 -18 -14
-17 -14 14 -15 17 0 32 -3 32 -7 0 -5 -12 -68 -27 -141 -25 -122 -27 -135 -13
-160 13 -22 23 -28 63 -30 38 -3 47 0 47 14 0 12 -6 15 -23 10 -28 -7 -67 18
-67 42 0 9 12 74 27 145 l26 127 49 0 c36 0 48 4 48 15 0 11 -12 15 -45 15
-44 0 -45 1 -39 28 3 15 7 33 10 40 2 6 -1 12 -6 12 -6 0 -17 -18 -26 -40z"/>
<path d="M6273 1513 c4 -58 7 -139 7 -180 0 -65 2 -73 19 -73 15 0 38 35 96
143 43 78 81 146 85 150 4 5 13 -60 20 -143 12 -141 14 -151 33 -148 26 4 195
358 171 358 -14 0 -39 -47 -142 -270 -14 -30 -26 -48 -28 -40 -1 8 -8 81 -14
163 -8 97 -16 147 -24 147 -6 0 -53 -75 -104 -167 l-92 -168 0 168 c0 149 -2
167 -17 167 -14 0 -15 -12 -10 -107z"/>
<path d="M6940 1615 c0 -2 -16 -79 -35 -171 -40 -190 -39 -184 -22 -184 9 0
24 50 46 158 18 86 35 167 38 180 4 16 1 22 -11 22 -9 0 -16 -2 -16 -5z"/>
<path d="M7220 1592 c-55 -55 -38 -108 53 -167 47 -31 63 -46 65 -67 8 -67
-61 -103 -142 -75 -40 14 -46 14 -46 1 0 -23 49 -36 114 -32 72 5 106 36 106
97 0 46 -10 59 -82 104 -61 39 -78 69 -59 106 17 31 80 46 126 31 27 -9 40 -9
48 -1 18 18 -1 26 -78 29 -72 4 -76 3 -105 -26z"/>
<path d="M8198 1595 c-57 -38 -83 -103 -83 -203 0 -82 1 -84 34 -114 31 -28
38 -30 93 -26 68 5 102 26 135 84 52 90 53 206 3 256 -25 24 -36 28 -87 28
-46 0 -66 -5 -95 -25z m150 -20 c39 -33 47 -82 27 -159 -19 -73 -44 -109 -91
-131 -31 -15 -43 -15 -75 -6 -47 14 -69 51 -69 114 0 148 122 255 208 182z"/>
<path d="M8660 1463 c-18 -87 -35 -168 -38 -180 -3 -16 0 -23 12 -23 9 0 16 2
16 5 0 28 46 208 61 236 35 69 106 112 148 90 34 -19 35 -53 4 -196 -26 -118
-28 -135 -14 -135 13 0 21 25 39 108 14 68 32 123 50 152 47 78 138 103 164
46 8 -19 5 -51 -16 -148 -15 -68 -30 -131 -32 -140 -4 -12 0 -18 10 -18 18 0
19 3 51 155 37 169 26 205 -60 205 -44 0 -86 -21 -113 -55 l-20 -26 -12 35
c-12 39 -25 46 -79 46 -27 0 -51 -9 -81 -31 l-43 -31 6 31 c5 22 3 31 -7 31
-8 0 -24 -52 -46 -157z"/>
<path d="M10260 1616 c0 -2 -16 -79 -35 -170 -40 -190 -39 -186 -22 -186 9 0
24 50 46 158 18 86 35 167 38 180 4 16 1 22 -11 22 -9 0 -16 -2 -16 -4z"/>
<path d="M10578 1602 c-57 -34 -76 -127 -37 -176 12 -15 20 -28 18 -30 -2 -2
-14 -9 -27 -15 -19 -10 -23 -19 -21 -52 3 -35 0 -42 -28 -59 -39 -23 -53 -48
-53 -93 0 -55 36 -81 119 -85 119 -7 196 44 189 124 -4 49 -37 72 -118 84 -35
5 -70 16 -78 24 -13 13 -11 17 11 40 20 20 36 26 70 26 89 0 151 78 129 163
l-9 37 38 0 c28 0 39 4 39 15 0 23 -204 21 -242 -3z m119 -17 c51 -36 32 -134
-32 -161 -69 -28 -123 12 -112 84 12 71 91 114 144 77z m-16 -325 c24 -14 34
-55 21 -85 -25 -54 -157 -80 -215 -42 -49 32 -29 104 37 133 33 15 123 12 157
-6z"/>
<path d="M11046 1603 c-3 -10 -19 -85 -36 -168 -17 -82 -33 -156 -35 -163 -3
-8 2 -12 12 -10 13 2 24 37 50 158 18 85 35 165 38 178 7 27 -21 32 -29 5z"/>
<path d="M11745 1608 c-75 -41 -115 -121 -115 -231 0 -70 2 -80 26 -104 22
-22 32 -25 77 -20 44 4 56 10 90 47 l40 42 -7 -41 c-5 -30 -3 -41 7 -41 9 0
24 53 47 163 18 89 35 170 38 180 8 30 -19 18 -30 -14 l-11 -31 -24 31 c-21
27 -31 31 -71 31 -26 0 -56 -6 -67 -12z m117 -38 c28 -28 30 -36 26 -80 -10
-105 -89 -210 -159 -212 -49 -2 -69 30 -69 106 0 95 46 179 110 205 41 16 60
12 92 -19z"/>
<path d="M12826 1603 c-3 -10 -21 -91 -40 -181 -29 -140 -32 -163 -18 -160 12
2 21 28 34 93 20 101 61 190 98 217 38 27 84 33 103 13 23 -22 21 -63 -8 -199
-30 -137 -29 -126 -10 -126 8 0 15 2 15 5 0 23 46 207 57 230 40 80 112 121
158 91 32 -21 32 -46 0 -188 -29 -127 -30 -138 -12 -138 15 0 67 221 67 286 0
53 -23 74 -81 74 -47 0 -90 -22 -121 -62 -17 -22 -18 -22 -18 -3 0 40 -28 65
-71 65 -46 0 -72 -11 -111 -48 l-27 -25 6 36 c6 38 -11 53 -21 20z"/>
<path d="M13588 1595 c-88 -60 -130 -263 -67 -326 21 -21 86 -26 122 -8 12 6
36 27 54 47 l32 36 -6 -42 c-6 -45 12 -61 22 -19 17 73 65 309 65 322 0 27
-20 16 -26 -15 -6 -28 -24 -43 -24 -20 0 6 -9 19 -20 30 -30 30 -105 27 -152
-5z m137 -20 c65 -65 2 -247 -101 -291 -84 -36 -126 47 -89 174 34 115 132
175 190 117z"/>
<path d="M14075 1608 c-2 -7 -18 -80 -35 -163 -17 -82 -34 -158 -36 -167 -4
-12 0 -18 10 -18 17 0 19 5 42 117 30 141 99 232 167 219 20 -4 27 -2 27 9 0
35 -108 9 -133 -32 -14 -24 -27 -14 -20 17 5 30 -13 45 -22 18z"/>
<path d="M14959 1597 c-108 -73 -136 -269 -47 -331 41 -29 168 -15 168 18 0
12 -6 12 -43 1 -85 -26 -140 10 -141 93 l-1 47 65 6 c36 4 77 11 91 17 63 25
90 111 49 152 -28 28 -97 27 -141 -3z m109 -13 c48 -33 12 -104 -62 -123 -60
-15 -106 -14 -106 2 1 25 47 92 79 114 40 27 59 29 89 7z"/>
<path d="M15691 1463 c-18 -87 -35 -168 -38 -180 -4 -17 -1 -23 11 -23 9 0 16
2 16 5 0 2 16 79 35 171 40 190 39 184 22 184 -9 0 -24 -50 -46 -157z"/>
<path d="M15991 1473 c-47 -222 -46 -213 -29 -213 11 0 20 25 33 88 10 48 27
108 38 135 36 86 120 137 172 103 32 -21 32 -53 0 -202 -30 -137 -29 -124 -10
-124 8 0 15 2 15 3 0 2 11 55 25 117 44 198 33 240 -60 240 -49 0 -105 -26
-125 -58 -9 -13 -10 -9 -7 21 2 23 -1 37 -9 37 -6 0 -24 -61 -43 -147z"/>
<path d="M16568 1604 c-56 -30 -80 -141 -38 -179 19 -17 19 -18 -10 -45 -31
-29 -38 -58 -20 -76 7 -7 -2 -18 -27 -35 -108 -70 -64 -179 72 -179 99 0 166
37 180 100 15 66 -30 101 -148 116 -57 7 -69 25 -37 60 17 17 34 24 63 24 91
0 144 58 135 148 l-5 51 35 3 c20 2 37 9 40 16 6 19 -204 16 -240 -4z m122
-24 c43 -43 16 -140 -43 -159 -61 -21 -107 11 -107 73 1 84 97 139 150 86z
m-57 -311 c97 -27 76 -121 -34 -149 -58 -15 -122 1 -144 34 -22 34 -3 81 44
106 41 22 79 25 134 9z"/>
</g>
</svg>
